<svg baseProfile="tiny" xmlns="http://www.w3.org/2000/svg" viewBox="0 0 77 77"><g fill="#8ABFB8"><path d="M59.309 69.446v-9.96c0-4.866-4.005-7.208-8.81-8.81l-4.805-2.403c0 1.769-3.227 3.204-7.208 3.204-3.981 0-7.208-1.434-7.208-3.204l-4.805 2.403c-4.805 1.602-8.81 3.944-8.81 8.81v9.938c5.912 4.132 13.095 6.565 20.839 6.565 7.729 0 14.9-2.425 20.807-6.543zM47.762 28.214v-1.996c0-4.376-3.548-7.924-7.924-7.924h-2.702c-4.376 0-7.924 3.548-7.924 7.924v1.996c0 .427.347.774.774.774h17.002c.427.001.774-.346.774-.774zm-6.874-3.167h-1.602v1.602h-1.602v-1.602h-1.602v-1.602h1.602v-1.602h1.602v1.602h1.602v1.602zM37.227 35.911l-6.751 2.251c1.026 3.849 3.639 7.685 8.009 7.685 4.37 0 6.983-3.835 8.009-7.685l-6.751-2.251c-.817-.272-1.699-.272-2.516 0z"/></g><g fill="#4D5152"><path d="M24.87 73.336c.528.214 1.062.416 1.602.605v-10.451h-1.602v9.846zM50.499 73.952c.54-.189 1.074-.39 1.602-.603v-9.859h-1.602v10.462zM60.11 68.876v-9.39c0-5.694-4.96-8.097-9.304-9.551l-4.709-2.355c-.928-.625-1.857-1.444-2.005-1.767v-1.703c2.074-2.266 3.119-5.618 3.199-8.314l.571-.572c.15-.15.235-.355.235-.567v-2.7c0-.277-.225-.502-.502-.502h-.597c-.277 0-.502.225-.502.502v2.37l-.566.566c-.154.154-.235.358-.235.576 0 .481-.036.99-.108 1.513l-4.841-1.614c-1.467-.489-3.052-.489-4.519 0l-4.841 1.614c-.072-.523-.108-1.033-.108-1.513 0-.218-.081-.422-.235-.576l-.566-.566v-2.37c0-.277-.225-.502-.502-.502h-.597c-.277 0-.502.225-.502.502v2.7c0 .213.084.417.235.567l.571.572c.081 2.696 1.125 6.048 3.199 8.314v1.703c-.148.323-1.078 1.142-2.005 1.767l-4.709 2.355c-4.344 1.454-9.304 3.858-9.304 9.551v9.369c.523.387 1.058.757 1.602 1.116v-10.485c0-3.712 2.471-6.119 8.263-8.051l.105-.043 3.957-1.978c.936 1.691 3.933 2.864 7.699 2.864s6.762-1.172 7.699-2.864l3.957 1.978.105.043c5.792 1.931 8.263 4.339 8.263 8.051v10.504c.539-.358 1.074-.728 1.597-1.114zm-28.406-30.313l4.775-1.592c1.302-.434 2.71-.434 4.012 0l4.775 1.592c-.489 1.833-1.407 3.655-2.771 4.905h-.005v.005c-1.061.97-2.388 1.597-4.005 1.597s-2.944-.627-4.005-1.597v-.005h-.005c-1.364-1.25-2.282-3.072-2.771-4.905zm6.781 12.113c-3.464 0-5.814-1.116-6.307-2.052 1.138-.811 2.303-1.858 2.303-2.754v-.386c1.129.735 2.457 1.187 4.005 1.187s2.876-.452 4.005-1.187v.386c0 .895 1.165 1.943 2.303 2.754-.495.936-2.845 2.052-6.309 2.052zM29.986 29.789h17.002c.869 0 1.575-.706 1.575-1.575v-1.995c0-4.811-3.915-8.725-8.726-8.725h-2.701c-4.811 0-8.726 3.914-8.726 8.725v1.995c.001.869.707 1.575 1.576 1.575zm.026-3.57c0-3.928 3.196-7.123 7.124-7.123h2.701c3.928 0 7.124 3.195 7.124 7.123l.027 1.969-16.976.026v-1.995z"/></g><path fill="#D0D0D0" d="M38.5 77c-21.229 0-38.5-17.271-38.5-38.5s17.271-38.5 38.5-38.5 38.5 17.271 38.5 38.5-17.271 38.5-38.5 38.5zm0-74.976c-20.113 0-36.476 16.363-36.476 36.476s16.363 36.477 36.476 36.477 36.476-16.364 36.476-36.477-16.363-36.476-36.476-36.476z"/></svg>